<?xml version="1.0" encoding="UTF-8" standalone="no"?>
<svg
   xmlns:dc="http://purl.org/dc/elements/1.1/"
   xmlns:cc="http://creativecommons.org/ns#"
   xmlns:rdf="http://www.w3.org/1999/02/22-rdf-syntax-ns#"
   xmlns:svg="http://www.w3.org/2000/svg"
   xmlns="http://www.w3.org/2000/svg"
   xmlns:sodipodi="http://sodipodi.sourceforge.net/DTD/sodipodi-0.dtd"
   xmlns:inkscape="http://www.inkscape.org/namespaces/inkscape"
   width="181.60846mm"
   height="37.638599mm"
   viewBox="0 0 181.60845 37.6386"
   version="1.1"
   id="svg8"
   inkscape:version="0.91 r13725"
   sodipodi:docname="bpmpro.svg"
   inkscape:export-filename="/home/miguel/Proyectos/Elementos graficos/Logotipos Ciel Technology/Entrega-logo-Ciel/PNG - RGB trasparente/Logo BPM pro Negro PNG trasparente RGB.png"
   inkscape:export-xdpi="299"
   inkscape:export-ydpi="299">
  <defs
     id="defs2">
    <rect
       x="40.464886"
       y="158.10786"
       width="201.85992"
       height="44.063751"
       id="rect1408" />
    <rect
       x="190.80185"
       y="4.018558"
       width="17.823553"
       height="17.087212"
       id="rect1378" />
    <rect
       x="132.07487"
       y="187.34151"
       width="25.017963"
       height="25.193815"
       id="rect1326" />
    <rect
       x="14.16298"
       y="225.74197"
       width="142.57253"
       height="18.370943"
       id="rect1307" />
    <rect
       x="17.782551"
       y="189.70273"
       width="109.41171"
       height="15.378312"
       id="rect1301" />
    <rect
       x="36.406704"
       y="169.63124"
       width="206.9666"
       height="19.934074"
       id="rect875" />
    <rect
       x="37.895111"
       y="171.32057"
       width="202.28323"
       height="22.898727"
       id="rect880" />
    <rect
       x="38.743092"
       y="172.01218"
       width="199.89438"
       height="21.675749"
       id="rect874" />
    <inkscape:perspective
       sodipodi:type="inkscape:persp3d"
       inkscape:vp_x="0 : 80.010391 : 1"
       inkscape:vp_y="0 : 1000 : 0"
       inkscape:vp_z="279.40001 : 80.010391 : 1"
       inkscape:persp3d-origin="139.7 : 44.027057 : 1"
       id="perspective1214" />
    <rect
       x="100.39217"
       y="145.7775"
       width="74.395103"
       height="24.95944"
       id="rect846" />
    <rect
       x="99.886963"
       y="145.58743"
       width="75.011436"
       height="26.512325"
       id="rect882" />
  </defs>
  <sodipodi:namedview
     id="base"
     pagecolor="#ffffff"
     bordercolor="#666666"
     borderopacity="1.0"
     inkscape:pageopacity="0.0"
     inkscape:pageshadow="2"
     inkscape:zoom="0.81696295"
     inkscape:cx="211.63882"
     inkscape:cy="-17.41603"
     inkscape:document-units="mm"
     inkscape:current-layer="layer2"
     inkscape:document-rotation="0"
     showgrid="false"
     units="mm"
     inkscape:window-width="1366"
     inkscape:window-height="705"
     inkscape:window-x="-8"
     inkscape:window-y="-8"
     inkscape:window-maximized="1"
     inkscape:snap-global="true"
     showguides="true"
     inkscape:guide-bbox="true"
     inkscape:lockguides="true"
     inkscape:showpageshadow="true"
     borderlayer="false"
     showborder="true"
     viewbox-width="279.4"
     fit-margin-top="0"
     fit-margin-left="0"
     fit-margin-right="0"
     fit-margin-bottom="0"
     inkscape:pagecheckerboard="1">
    <inkscape:grid
       type="xygrid"
       id="grid865"
       originx="-88.732828"
       originy="-115.31109" />
    <sodipodi:guide
       position="145.72673,62.930515"
       orientation="0,-1"
       id="guide1027"
       inkscape:locked="true" />
    <sodipodi:guide
       position="27.482983,12.420197"
       orientation="0,-1"
       id="guide1029"
       inkscape:locked="true" />
    <sodipodi:guide
       position="181.84435,50.905922"
       orientation="1,0"
       id="guide1031"
       inkscape:locked="true" />
    <sodipodi:guide
       position="12.420193,37.260586"
       orientation="1,0"
       id="guide1033"
       inkscape:locked="true" />
    <sodipodi:guide
       position="168.72427,42.246667"
       orientation="1,0"
       id="guide1035"
       inkscape:locked="true" />
    <sodipodi:guide
       position="127.63733,3.7919768e-06"
       orientation="0,-1"
       id="guide1037"
       inkscape:locked="true" />
    <sodipodi:guide
       position="153.53476,75.578214"
       orientation="0,-1"
       id="guide1054"
       inkscape:locked="true" />
    <sodipodi:guide
       position="-1.614746e-06,42.545776"
       orientation="1,0"
       id="guide1071"
       inkscape:locked="true" />
  </sodipodi:namedview>
  <metadata
     id="metadata5">
    <rdf:RDF>
      <cc:Work
         rdf:about="">
        <dc:format>image/svg+xml</dc:format>
        <dc:type
           rdf:resource="http://purl.org/dc/dcmitype/StillImage" />
        <dc:title></dc:title>
      </cc:Work>
    </rdf:RDF>
  </metadata>
  <g
     inkscape:label="Boceto"
     inkscape:groupmode="layer"
     id="layer1"
     style="display:inline;opacity:0.99599998"
     transform="translate(-50.679471,-74.837544)">
    <text
       xml:space="preserve"
       id="text880"
       style="font-size:10.58329964px;line-height:1.76389003px;font-family:JuneBug;-inkscape-font-specification:JuneBug;letter-spacing:0px;word-spacing:0px;white-space:pre" />
    <text
       xml:space="preserve"
       id="text844"
       style="font-style:normal;font-variant:normal;font-weight:normal;font-stretch:normal;font-size:10.58329964px;line-height:0.529167px;font-family:'Smooth Circulars';-inkscape-font-specification:'Smooth Circulars';letter-spacing:0px;word-spacing:0px;white-space:pre"
       transform="translate(1.6811031,12.870584)" />
  </g>
  <g
     inkscape:groupmode="layer"
     id="layer2"
     inkscape:label="Letra B"
     style="display:inline;opacity:0.99100001"
     transform="translate(-50.679471,-74.837544)">
    <path
       id="rect986-7-7-8-8"
       style="display:inline;fill:#000000;fill-opacity:0.97647101;stroke-width:1.42085004;stroke-linecap:round;stroke-opacity:0.99607801"
       d="m 58.226297,75.561977 c -4.181001,0 -7.546826,3.365825 -7.546826,7.546826 l 0,20.998687 c 0,4.18098 3.365825,7.54678 7.546826,7.54678 l 77.317243,0 c 4.181,0 7.54683,-3.3658 7.54683,-7.54678 l 0,-20.998687 c 0,-4.181001 -3.36583,-7.546826 -7.54683,-7.546826 z m 0.690914,6.002734 3.86798,0 15.472439,0 c 2.142906,0 3.867984,1.79041 3.867984,4.014226 l 0,6.20789 c -0.04655,1.02377 -0.856192,1.83348 -1.854668,1.83348 0.998476,0 1.808107,0.809678 1.854668,1.833478 l 0,6.181525 c 0,2.22377 -1.725078,4.0142 -3.867984,4.0142 l -15.472439,0 -3.86798,0 0,-4.81673 5.492687,0 0.696081,0 10.753349,0 c 0.900017,0 1.624708,-0.75215 1.624708,-1.686198 l 0,-1.444871 c 0,-0.933936 -0.724691,-1.686202 -1.624708,-1.686202 l -9.979752,0 0,-4.816761 9.979752,0 c 0.900017,0 1.624708,-0.7517 1.624708,-1.685684 l 0,-1.44539 c 0,-0.934018 -0.724691,-1.685686 -1.624708,-1.685686 l -11.44943,0 -0.85111,0 0.01395,4.01371 -0.01395,0 0,4.014224 0.0041,0 -0.0067,4.07417 -4.638992,0 z m 56.074099,0.04754 6.14277,0 c 1.0131,0.04781 1.81436,0.878904 1.81436,1.904276 0,-1.025372 0.80123,-1.856386 1.81436,-1.904276 l 6.11694,0 c 2.20059,0 3.97237,1.771784 3.97237,3.972367 l 0,15.888942 0,3.97183 -4.76715,0 0,-5.640444 0,-0.714691 0,-11.042734 c 0,-0.924249 -0.74387,-1.668633 -1.66812,-1.668633 l -1.42988,0 c -0.92426,0 -1.66864,0.744384 -1.66864,1.668633 l 0,10.247952 -4.76663,0 0,-10.247952 c 0,-0.924249 -0.74386,-1.668633 -1.66811,-1.668633 l -1.42989,0 c -0.92426,0 -1.66863,0.744384 -1.66863,1.668633 l 0,11.757425 0,0.873844 0.003,0 0,4.7666 -4.7687,0 0,-3.97182 0,-15.888949 c 0,-2.200583 1.77127,-3.972367 3.97186,-3.972367 z m -29.332064,0.01344 3.971851,0 15.888953,0 c 2.20061,0 3.97185,1.771252 3.97185,3.971851 l 0,6.143294 c -0.47956,4.164473 -2.17008,4.5583 -6.43475,4.184759 l -10.248468,0 0,-4.766636 10.248468,0 c 0.92425,0 1.66812,-0.744384 1.66812,-1.668632 l 0,-1.429887 c 0,-0.924246 -0.74387,-1.668115 -1.66812,-1.668115 l -11.757937,0 -0.873848,0 0.01447,3.971852 -0.01447,0 0,3.972367 0.0047,0 -0.0067,11.122286 -4.764051,0 z"
       inkscape:connector-curvature="0" />
    <path
       id="rect856-3-1-8-3-2-97-6-9-3"
       style="display:inline;opacity:0.98208098;fill:#000000;fill-opacity:1;stroke-width:0.499935;stroke-linecap:round"
       d="m 147.42223,82.180923 0,23.833107 4.76372,0 0.006,-11.122099 -0.005,0 0,-3.972185 0.0143,0 -0.0143,-3.972185 0.87389,0 11.75774,0 c 0.92425,0 1.66834,0.744073 1.66834,1.668305 l 0,1.42998 c 0,0.924264 -0.74409,1.668321 -1.66834,1.668321 l -10.24833,0 0,4.766638 10.24831,0 c 4.26465,0.373559 5.95543,-0.02014 6.43499,-4.184598 l 0,-6.143083 c 0,-2.200599 -1.77161,-3.972201 -3.97223,-3.972201 l -15.88888,0 z"
       sodipodi:nodetypes="cccccccccssssccccsscc"
       inkscape:connector-curvature="0" />
    <path
       id="rect856-3-9-4-4-1-3-2-2-0"
       style="display:inline;opacity:0.98208098;fill:#000000;fill-opacity:1;stroke-width:0.499935;stroke-linecap:round"
       d="m 173.03458,82.257484 0,18.272226 0.0225,0 0,0.79451 -0.0225,0 0,4.76637 3.97187,0 0.81667,0 0,-4.76637 -0.0197,0 0,-3.616825 -0.002,0 0.003,-2.738998 -0.005,0 0,-3.971868 0.0143,0 -0.0143,-3.972249 0.87382,0 11.75778,0 c 0.92425,0 1.66837,0.744105 1.66837,1.668353 l 0,1.429663 c 0,0.924248 -0.74412,1.668369 -1.66837,1.668369 l -10.24853,0 0,4.76678 10.24841,0 c 0.92423,0 1.66835,0.744105 1.66835,1.668353 l 0,1.430088 c 0,0.0525 -0.003,0.10419 -0.008,0.15541 l 0,6.279334 4.71848,0.008 c 0,0 0.056,-1.78018 0.056,-3.98075 l 0,-6.116777 c -0.0477,-1.013115 -0.87884,-1.814465 -1.90418,-1.814465 1.02534,0 1.85643,-0.801351 1.90421,-1.814466 l 0,-6.142939 c 0,-2.200584 -1.77165,-3.972265 -3.97225,-3.972265 l -15.88834,0 z"
       sodipodi:nodetypes="ccccccccccccccccccssssccssscccccccsscc"
       inkscape:connector-curvature="0" />
    <path
       id="rect856-7-5-26-3-1-3"
       style="display:inline;fill:#000000;fill-opacity:1;stroke-width:0.50082499;stroke-linecap:round"
       d="m 202.8342,82.293782 c -2.20448,0 -3.97924,1.774758 -3.97924,3.979258 l 0,15.91702 c 0,2.2045 1.77476,3.97924 3.97924,3.97924 l 15.91705,0 c 2.2045,0 3.97927,-1.77474 3.97927,-3.97924 l 0,-15.91702 c 0,-2.2045 -1.77477,-3.979258 -3.97927,-3.979258 z m 3.31593,4.974072 9.28517,0 c 1.28598,0 2.32112,1.035156 2.32112,2.321133 l 0,9.285183 c 0,1.28598 -1.03514,2.32108 -2.32112,2.32108 l -9.28517,0 c -1.28598,0 -2.3211,-1.0351 -2.3211,-2.32108 l 0,-9.285183 c 0,-1.285977 1.03512,-2.321133 2.3211,-2.321133 z"
       inkscape:connector-curvature="0" />
    <g
       id="g1386"
       style="fill:#000000;fill-opacity:0.99215698"
       transform="matrix(1.0882409,0,0,1.0882409,81.630594,-107.06818)">
      <path
         id="path1330"
         style="opacity:1;fill:#000000;fill-opacity:0.99215698;stroke-width:1.10857999;stroke-linecap:round;stroke-opacity:0.99607801"
         d="M 506.25,635.02539 A 16.991841,16.991841 0 0 0 489.25781,652.01758 16.991841,16.991841 0 0 0 506.25,669.00977 16.991841,16.991841 0 0 0 523.24219,652.01758 16.991841,16.991841 0 0 0 506.25,635.02539 Z m 0,4.64258 A 12.349434,12.349434 0 0 1 518.59961,652.01758 12.349434,12.349434 0 0 1 506.25,664.36719 12.349434,12.349434 0 0 1 493.90039,652.01758 12.349434,12.349434 0 0 1 506.25,639.66797 Z"
         transform="scale(0.26458333,0.26458333)"
         inkscape:connector-curvature="0" />
      <text
         xml:space="preserve"
         id="text1376"
         style="font-size:10.58329964px;line-height:1.76389003px;font-family:JuneBug;-inkscape-font-specification:JuneBug;letter-spacing:0px;word-spacing:0px;white-space:pre;fill:#000000;fill-opacity:0.99215698"
         transform="matrix(0.49127617,0,0,0.44962479,38.020019,170.67182)"><tspan
           x="190.80273"
           y="7.6506538"
           id="tspan1111"><tspan
             style="font-weight:bold;font-family:sans-serif;-inkscape-font-specification:'sans-serif Bold'"
             id="tspan1109">R</tspan></tspan></text>
    </g>
    <text
       xml:space="preserve"
       id="text872"
       style="font-size:10.58329964px;line-height:1.76389003px;font-family:JuneBug;-inkscape-font-specification:JuneBug;letter-spacing:0px;word-spacing:0px;white-space:pre;fill:#ffffff" />
    <text
       xml:space="preserve"
       id="text1324"
       style="font-style:normal;font-variant:normal;font-weight:normal;font-stretch:normal;font-size:10.58329964px;line-height:1.76389003px;font-family:Arial;-inkscape-font-specification:Arial;letter-spacing:0px;word-spacing:0px;white-space:pre;fill:#000000" />
  </g>
</svg>
